<mxfile host="app.diagrams.net" modified="2023-04-10T09:14:37.868Z" agent="Mozilla/5.0 (Windows NT 10.0; Win64; x64) AppleWebKit/537.36 (KHTML, like Gecko) Chrome/109.0.0.0 Safari/537.36 Edg/109.0.1518.69" version="21.1.5" etag="6Xg_umYHoOIuReBKxvEY" type="github">
  <diagram name="第 1 页" id="WRfh3TPd-_-qdNTyffRN">
    <mxGraphModel>
      <root>
        <mxCell id="0" />
        <mxCell id="1" parent="0" />
      </root>
    </mxGraphModel>
  </diagram>
</mxfile>
